<svg width="38" height="37" viewBox="0 0 38 37" fill="none" xmlns="http://www.w3.org/2000/svg">
<path d="M6.25 36.1258C5.12233 36.1258 4.007 35.9341 2.904 35.5508C1.80133 35.1675 0.833333 34.5425 0 33.6758C1.16667 33.2758 2 32.6925 2.5 31.9258C3 31.1591 3.25 30.1258 3.25 28.8258C3.25 27.3675 3.76133 26.1278 4.784 25.1068C5.80633 24.0861 7.048 23.5758 8.509 23.5758C9.96967 23.5758 11.2083 24.0861 12.225 25.1068C13.2417 26.1278 13.75 27.3675 13.75 28.8258C13.75 30.9591 13.025 32.7091 11.575 34.0758C10.125 35.4425 8.35 36.1258 6.25 36.1258ZM6.25 33.1258C7.41667 33.1258 8.45833 32.7091 9.375 31.8758C10.2917 31.0425 10.75 30.0258 10.75 28.8258C10.75 28.1591 10.5417 27.6175 10.125 27.2008C9.70833 26.7841 9.16667 26.5758 8.5 26.5758C7.83333 26.5758 7.29167 26.7841 6.875 27.2008C6.45833 27.6175 6.25 28.1591 6.25 28.8258C6.25 30.1258 6.10833 31.0841 5.825 31.7008C5.54167 32.3175 5.01667 32.6925 4.25 32.8258C4.45 32.8591 4.78333 32.9175 5.25 33.0008C5.71667 33.0841 6.05 33.1258 6.25 33.1258ZM17.75 24.2758L13.25 19.5258L32.05 0.725806C32.5167 0.25914 33.0333 0.0174731 33.6 0.000806452C34.1667 -0.0158602 34.7 0.225806 35.2 0.725806L36.65 2.17581C37.15 2.67581 37.3917 3.21747 37.375 3.80081C37.3583 4.38414 37.1167 4.90914 36.65 5.37581L17.75 24.2758Z" fill="#C14D36"/>
</svg>
