<svg width="36" height="32" viewBox="0 0 36 32" fill="none" xmlns="http://www.w3.org/2000/svg">
<path d="M4 27.8V30.5C4 30.925 3.85633 31.2812 3.569 31.5685C3.28133 31.8562 2.925 32 2.5 32H1.5C1.075 32 0.718834 31.8562 0.4315 31.5685C0.143834 31.2812 0 30.925 0 30.5V14.3L4.25 1.5C4.41667 1.03333 4.69167 0.666667 5.075 0.4C5.45833 0.133333 5.9 0 6.4 0H29.6C30.1 0 30.5417 0.133333 30.925 0.4C31.3083 0.666667 31.5833 1.03333 31.75 1.5L36 14.3V30.5C36 30.925 35.8563 31.2812 35.569 31.5685C35.2813 31.8562 34.925 32 34.5 32H33.45C33.0167 32 32.6667 31.8562 32.4 31.5685C32.1333 31.2812 32 30.925 32 30.5V27.8H4ZM4.15 11.3H31.85L29.1 3H6.9L4.15 11.3ZM8.288 22.3C9.06267 22.3 9.70833 22.0375 10.225 21.5125C10.7417 20.9875 11 20.35 11 19.6C11 18.8223 10.7375 18.1612 10.2125 17.6165C9.6875 17.0722 9.05 16.8 8.3 16.8C7.52233 16.8 6.86117 17.071 6.3165 17.613C5.77217 18.1553 5.5 18.8137 5.5 19.588C5.5 20.3627 5.771 21.0083 6.313 21.525C6.85533 22.0417 7.51367 22.3 8.288 22.3ZM27.75 22.3C28.5277 22.3 29.1888 22.0375 29.7335 21.5125C30.2778 20.9875 30.55 20.35 30.55 19.6C30.55 18.8223 30.279 18.1612 29.737 17.6165C29.1947 17.0722 28.5363 16.8 27.762 16.8C26.9873 16.8 26.3417 17.071 25.825 17.613C25.3083 18.1553 25.05 18.8137 25.05 19.588C25.05 20.3627 25.3125 21.0083 25.8375 21.525C26.3625 22.0417 27 22.3 27.75 22.3ZM3 24.8H33V14.3H3V24.8Z" fill="#C14D36"/>
</svg>
