<svg width="40" height="40" viewBox="0 0 40 40" fill="none" xmlns="http://www.w3.org/2000/svg">
<path d="M13.7 40C11.8333 40 10.0667 39.6583 8.4 38.975C6.73333 38.2917 5.25 37.3 3.95 36C2.68333 34.7333 1.70833 33.275 1.025 31.625C0.341667 29.975 0 28.2 0 26.3C0 23.6333 0.691667 21.2 2.075 19C3.45833 16.8 5.3 15.1667 7.6 14.1C8.26667 12.7 9.15 11.45 10.25 10.35C11.35 9.25 12.6333 8.33333 14.1 7.6C15.1667 5.23333 16.7917 3.375 18.975 2.025C21.1583 0.675 23.6167 0 26.35 0C28.2167 0 29.975 0.341667 31.625 1.025C33.275 1.70833 34.7333 2.7 36 4C37.2667 5.3 38.25 6.76667 38.95 8.4C39.65 10.0333 40 11.7833 40 13.65C40 16.45 39.3583 18.8917 38.075 20.975C36.7917 23.0583 34.9 24.7 32.4 25.9C31.7333 27.3667 30.8583 28.6417 29.775 29.725C28.6917 30.8083 27.4 31.7 25.9 32.4C24.8333 34.7667 23.2083 36.625 21.025 37.975C18.8417 39.325 16.4 40 13.7 40ZM13.7 37C15.2 37 16.6417 36.675 18.025 36.025C19.4083 35.375 20.5333 34.5167 21.4 33.45C19.3 33.6833 17.2917 33.475 15.375 32.825C13.4583 32.175 11.7667 31.1333 10.3 29.7C8.83333 28.2667 7.78333 26.5833 7.15 24.65C6.51667 22.7167 6.31667 20.7 6.55 18.6C5.45 19.4667 4.58333 20.5917 3.95 21.975C3.31667 23.3583 3 24.8 3 26.3C3 27.8 3.26667 29.2 3.8 30.5C4.33333 31.8 5.1 32.9333 6.1 33.9C7.1 34.8667 8.24167 35.625 9.525 36.175C10.8083 36.725 12.2 37 13.7 37ZM20 30.65C21.5 30.65 22.9333 30.3333 24.3 29.7C25.6667 29.0667 26.8167 28.2 27.75 27.1C25.65 27.3333 23.65 27.1083 21.75 26.425C19.85 25.7417 18.1833 24.6667 16.75 23.2C15.2833 21.7 14.2167 19.9917 13.55 18.075C12.8833 16.1583 12.6833 14.15 12.95 12.05C11.6167 13.3167 10.6833 14.5417 10.15 15.725C9.61667 16.9083 9.35 18.3333 9.35 20C9.35 21.4667 9.61667 22.85 10.15 24.15C10.6833 25.45 11.45 26.6 12.45 27.6C13.4167 28.5667 14.55 29.3167 15.85 29.85C17.15 30.3833 18.5333 30.65 20 30.65ZM26.55 24.2C27.1167 24.2 27.6917 24.1417 28.275 24.025C28.8583 23.9083 29.4833 23.7167 30.15 23.45C30.85 21.4833 30.9667 19.5417 30.5 17.625C30.0333 15.7083 29.05 14 27.55 12.5C26.15 11.1 24.3917 10.15 22.275 9.65C20.1583 9.15 18.2 9.21667 16.4 9.85C16.2333 10.4167 16.1083 11 16.025 11.6C15.9417 12.2 15.9 12.8833 15.9 13.65C15.9 15.05 16.1667 16.4 16.7 17.7C17.2333 19 18 20.1667 19 21.2C20 22.2667 21.15 23.0333 22.45 23.5C23.75 23.9667 25.1167 24.2 26.55 24.2ZM33.7 21.5C34.8333 20.5333 35.6667 19.4167 36.2 18.15C36.7333 16.8833 37 15.3833 37 13.65C37 12.2167 36.7333 10.8583 36.2 9.575C35.6667 8.29167 34.9 7.15 33.9 6.15C32.8667 5.11667 31.7083 4.33333 30.425 3.8C29.1417 3.26667 27.7833 3 26.35 3C24.7167 3 23.2333 3.275 21.9 3.825C20.5667 4.375 19.3667 5.23333 18.3 6.4C20.4 6.16667 22.4333 6.39167 24.4 7.075C26.3667 7.75833 28.1167 8.85 29.65 10.35C31.1833 11.85 32.3 13.5583 33 15.475C33.7 17.3917 33.9333 19.4 33.7 21.5Z" fill="#C14D36"/>
</svg>
