<svg width="32" height="40" viewBox="0 0 32 40" fill="none" xmlns="http://www.w3.org/2000/svg">
<path d="M1.2 9.4C0.733333 8.9 0.416667 8.33333 0.25 7.7C0.0833333 7.06667 0 6.41667 0 5.75C0 4.15 0.55 2.79167 1.65 1.675C2.75 0.558333 4.1 0 5.7 0C7.3 0 8.65 0.558333 9.75 1.675C10.85 2.79167 11.4 4.15 11.4 5.75C11.4 6.41667 11.3167 7.06667 11.15 7.7C10.9833 8.33333 10.6667 8.9 10.2 9.4H1.2ZM11.8 40C9.66667 40 7.84167 39.25 6.325 37.75C4.80833 36.25 4.05 34.4167 4.05 32.25H2.35L0.35 11.45H11.05L9.05 32.25H7.05C7.05 33.55 7.51667 34.6667 8.45 35.6C9.38333 36.5333 10.5 37 11.8 37C13.1 37 14.2083 36.5333 15.125 35.6C16.0417 34.6667 16.5 33.55 16.5 32.25V7.75C16.5 5.58333 17.25 3.75 18.75 2.25C20.25 0.75 22.0833 0 24.25 0C26.4167 0 28.25 0.75 29.75 2.25C31.25 3.75 32 5.58333 32 7.75V40H29V7.75C29 6.45 28.5333 5.33333 27.6 4.4C26.6667 3.46667 25.55 3 24.25 3C22.95 3 21.8333 3.46667 20.9 4.4C19.9667 5.33333 19.5 6.45 19.5 7.75V32.25C19.5 34.4167 18.75 36.25 17.25 37.75C15.75 39.25 13.9333 40 11.8 40ZM5.05 29.25H6.35L7.75 14.45H3.65L5.05 29.25ZM6.35 14.45H3.65H7.75H6.35Z" fill="#C14D36"/>
</svg>
