<svg width="41" height="40" viewBox="0 0 41 40" fill="none" xmlns="http://www.w3.org/2000/svg">
<path d="M20.3335 40C17.5335 40 14.9168 39.475 12.4835 38.425C10.0502 37.375 7.9335 35.95 6.1335 34.15C4.3335 32.35 2.91683 30.225 1.8835 27.775C0.850163 25.325 0.333496 22.7 0.333496 19.9C0.333496 17.1 0.850163 14.4917 1.8835 12.075C2.91683 9.65833 4.3335 7.55 6.1335 5.75C7.9335 3.95 10.0502 2.54167 12.4835 1.525C14.9168 0.508333 17.5335 0 20.3335 0C23.1335 0 25.7502 0.508333 28.1835 1.525C30.6168 2.54167 32.7335 3.95 34.5335 5.75C36.3335 7.55 37.7502 9.65833 38.7835 12.075C39.8168 14.4917 40.3335 17.1 40.3335 19.9C40.3335 22.7 39.8168 25.325 38.7835 27.775C37.7502 30.225 36.3335 32.35 34.5335 34.15C32.7335 35.95 30.6168 37.375 28.1835 38.425C25.7502 39.475 23.1335 40 20.3335 40ZM20.3335 37.1C21.5002 35.9 22.4752 34.525 23.2585 32.975C24.0418 31.425 24.6835 29.5833 25.1835 27.45H15.5335C16.0002 29.45 16.6252 31.25 17.4085 32.85C18.1918 34.45 19.1668 35.8667 20.3335 37.1ZM16.0835 36.5C15.2502 35.2333 14.5335 33.8667 13.9335 32.4C13.3335 30.9333 12.8335 29.2833 12.4335 27.45H4.9335C6.20016 29.8167 7.66683 31.675 9.3335 33.025C11.0002 34.375 13.2502 35.5333 16.0835 36.5ZM24.6335 36.45C27.0335 35.6833 29.1918 34.5333 31.1085 33C33.0252 31.4667 34.5668 29.6167 35.7335 27.45H28.2835C27.8502 29.25 27.3418 30.8833 26.7585 32.35C26.1752 33.8167 25.4668 35.1833 24.6335 36.45ZM3.9335 24.45H11.8835C11.7835 23.55 11.7252 22.7417 11.7085 22.025C11.6918 21.3083 11.6835 20.6 11.6835 19.9C11.6835 19.0667 11.7002 18.325 11.7335 17.675C11.7668 17.025 11.8335 16.3 11.9335 15.5H3.9335C3.70016 16.3 3.54183 17.0167 3.4585 17.65C3.37516 18.2833 3.3335 19.0333 3.3335 19.9C3.3335 20.7667 3.37516 21.5417 3.4585 22.225C3.54183 22.9083 3.70016 23.65 3.9335 24.45ZM14.9835 24.45H25.7335C25.8668 23.4167 25.9502 22.575 25.9835 21.925C26.0168 21.275 26.0335 20.6 26.0335 19.9C26.0335 19.2333 26.0168 18.5917 25.9835 17.975C25.9502 17.3583 25.8668 16.5333 25.7335 15.5H14.9835C14.8502 16.5333 14.7668 17.3583 14.7335 17.975C14.7002 18.5917 14.6835 19.2333 14.6835 19.9C14.6835 20.6 14.7002 21.275 14.7335 21.925C14.7668 22.575 14.8502 23.4167 14.9835 24.45ZM28.7335 24.45H36.7335C36.9668 23.65 37.1252 22.9083 37.2085 22.225C37.2918 21.5417 37.3335 20.7667 37.3335 19.9C37.3335 19.0333 37.2918 18.2833 37.2085 17.65C37.1252 17.0167 36.9668 16.3 36.7335 15.5H28.7835C28.8835 16.6667 28.9502 17.5583 28.9835 18.175C29.0168 18.7917 29.0335 19.3667 29.0335 19.9C29.0335 20.6333 29.0085 21.325 28.9585 21.975C28.9085 22.625 28.8335 23.45 28.7335 24.45ZM28.2335 12.5H35.7335C34.6335 10.2 33.1252 8.28333 31.2085 6.75C29.2918 5.21667 27.0835 4.13333 24.5835 3.5C25.4168 4.73333 26.1252 6.06667 26.7085 7.5C27.2918 8.93333 27.8002 10.6 28.2335 12.5ZM15.5335 12.5H25.2335C24.8668 10.7333 24.2502 9.025 23.3835 7.375C22.5168 5.725 21.5002 4.26667 20.3335 3C19.2668 3.9 18.3668 5.08333 17.6335 6.55C16.9002 8.01667 16.2002 10 15.5335 12.5ZM4.9335 12.5H12.4835C12.8502 10.7 13.3168 9.09167 13.8835 7.675C14.4502 6.25833 15.1668 4.88333 16.0335 3.55C13.5335 4.18333 11.3502 5.25 9.4835 6.75C7.61683 8.25 6.10016 10.1667 4.9335 12.5Z" fill="rgba(193, 77, 54, 1)"/>
</svg>
