<svg width="36" height="36" viewBox="0 0 36 36" fill="none" xmlns="http://www.w3.org/2000/svg">
<path d="M3.5 36C3.06667 36 2.70833 35.8583 2.425 35.575C2.14167 35.2917 2 34.9333 2 34.5V32H0V24.5C0 24.0667 0.141667 23.7083 0.425 23.425C0.708333 23.1417 1.06667 23 1.5 23H4V7.5C4 5.36667 4.78333 3.58333 6.35 2.15C7.91667 0.716667 9.8 0 12 0C14.1 0 15.875 0.725 17.325 2.175C18.775 3.625 19.5 5.4 19.5 7.5V28.5C19.5 29.7667 19.9333 30.8333 20.8 31.7C21.6667 32.5667 22.7333 33 24 33C25.3667 33 26.5417 32.575 27.525 31.725C28.5083 30.875 29 29.8 29 28.5V13H26.5C26.0667 13 25.7083 12.8583 25.425 12.575C25.1417 12.2917 25 11.9333 25 11.5V4H27V1.5C27 1.06667 27.1417 0.708333 27.425 0.425C27.7083 0.141667 28.0667 0 28.5 0H32.5C32.9333 0 33.2917 0.141667 33.575 0.425C33.8583 0.708333 34 1.06667 34 1.5V4H36V11.5C36 11.9333 35.8583 12.2917 35.575 12.575C35.2917 12.8583 34.9333 13 34.5 13H32V28.5C32 30.6333 31.2167 32.4167 29.65 33.85C28.0833 35.2833 26.2 36 24 36C21.9 36 20.125 35.275 18.675 33.825C17.225 32.375 16.5 30.6 16.5 28.5V7.5C16.5 6.23333 16.0667 5.16667 15.2 4.3C14.3333 3.43333 13.2667 3 12 3C10.6333 3 9.45833 3.425 8.475 4.275C7.49167 5.125 7 6.2 7 7.5V23H9.5C9.93333 23 10.2917 23.1417 10.575 23.425C10.8583 23.7083 11 24.0667 11 24.5V32H9V34.5C9 34.9333 8.85833 35.2917 8.575 35.575C8.29167 35.8583 7.93333 36 7.5 36H3.5Z" fill="#C14D36"/>
</svg>
