<svg width="43" height="42" viewBox="0 0 43 42" fill="none" xmlns="http://www.w3.org/2000/svg">
<path d="M3.6665 38C2.8665 38 2.1665 37.7 1.5665 37.1C0.966504 36.5 0.666504 35.8 0.666504 35V11C0.666504 10.2 0.966504 9.5 1.5665 8.9C2.1665 8.3 2.8665 8 3.6665 8H12.6665V3C12.6665 2.23333 12.9665 1.54167 13.5665 0.925C14.1665 0.308333 14.8665 0 15.6665 0H25.6665C26.4665 0 27.1665 0.308333 27.7665 0.925C28.3665 1.54167 28.6665 2.23333 28.6665 3V8H37.6665C38.4665 8 39.1665 8.3 39.7665 8.9C40.3665 9.5 40.6665 10.2 40.6665 11V22.25C40.1998 21.8833 39.7248 21.55 39.2415 21.25C38.7582 20.95 38.2332 20.6667 37.6665 20.4V11H3.6665V35H20.3665C20.4998 35.5333 20.6665 36.05 20.8665 36.55C21.0665 37.05 21.2998 37.5333 21.5665 38H3.6665ZM15.6665 8H25.6665V3H15.6665V8ZM32.6665 41.65C30.0332 41.65 27.7665 40.7 25.8665 38.8C23.9665 36.9 23.0165 34.6333 23.0165 32C23.0165 29.3667 23.9665 27.1 25.8665 25.2C27.7665 23.3 30.0332 22.35 32.6665 22.35C35.2998 22.35 37.5665 23.3 39.4665 25.2C41.3665 27.1 42.3165 29.3667 42.3165 32C42.3165 34.6333 41.3665 36.9 39.4665 38.8C37.5665 40.7 35.2998 41.65 32.6665 41.65ZM33.5165 31.9V25.7H31.4165V32.489L36.3665 37.05L37.7165 35.7L33.5165 31.9Z" fill="rgba(193, 77, 54, 1)"/>
</svg>
